<svg width="536" height="229" viewBox="0 0 536 229" fill="none" xmlns="http://www.w3.org/2000/svg">
<path d="M82.756 54.6367L41.3721 27.3184L0 54.6367V27.3184L41.378 0L82.7619 27.3184L82.756 54.6367Z" fill="#A435F0"/>
<path d="M0 71.797H21.8096V122.576C21.8096 135.696 32.0328 142.091 41.6338 142.091C51.3177 142.091 61.4639 135.525 61.4639 122.4V71.797H83.2735V123.786C83.2735 135.872 79.3086 145.197 71.379 151.592C63.4433 157.981 53.5342 161.094 41.45 161.094C29.3777 161.094 19.4627 157.987 11.7167 151.592C3.96484 145.203 0 136.224 0 124.303V71.797ZM271.826 134.906C265.223 140.54 257.703 143.3 249.127 143.3C233.481 143.3 222.991 134.758 221.806 121.531H292.272C292.272 121.531 292.746 117.26 292.746 113.251C292.746 100.813 288.598 90.4481 280.123 81.9858C271.837 73.5236 261.027 69.3776 247.865 69.3776C233.991 69.3776 222.63 73.5236 213.615 81.9858C204.785 90.4481 200.281 101.5 200.281 115.324V116.005C200.281 129.653 204.785 140.534 213.615 148.656C222.446 156.772 234.163 160.918 248.404 160.918C264.963 160.918 278.137 154.659 288.023 143.868L271.826 134.906ZM230.376 92.521C235.235 88.8919 241.191 86.995 247.859 86.995C254.165 86.995 259.392 88.8919 263.902 92.6971C268.204 96.1615 270.528 100.415 270.729 105.305H222.363C223.062 100.251 225.729 95.9911 230.381 92.5267L230.376 92.521ZM491.367 172.651C482.519 192.671 473.262 199.48 459.068 199.48H449.23V180.954H457.183C462.067 180.954 466.606 179.194 470.933 169.63L475.259 160.054L437.946 71.797H460.117L486.614 135.36L513.835 71.797H536L491.367 172.651ZM168.177 38.4648V79.68C161.029 73.5463 149.911 69.8944 139.161 69.8944C126.359 69.8944 115.549 74.2108 106.719 83.0138C98.0661 91.6521 93.7397 102.358 93.7397 115.312C93.7397 128.273 98.0661 138.978 106.719 147.787C115.549 156.425 126.365 160.747 139.161 160.747C153.918 160.747 163.246 155.187 168.177 150.831V158.845H189.809V38.4705L168.177 38.4648ZM161.687 134.321C156.46 139.33 149.793 141.926 142.041 141.926C134.289 141.926 127.983 139.33 122.756 134.321C117.718 129.312 115.188 122.923 115.188 115.324C115.188 107.719 117.712 101.33 122.756 96.3205C127.983 91.3113 134.289 88.7215 142.041 88.7215C149.793 88.7215 156.46 91.3113 161.687 96.3205C167.092 101.33 169.807 107.719 169.807 115.324C169.807 122.923 167.092 129.312 161.687 134.321ZM404.319 70.0705C387.89 70.0705 379.35 76.6018 373.501 82.8945C371.16 78.6179 364.57 70.0705 349.173 70.0705C336.158 70.0705 328.489 76.3746 324.66 80.8613V71.8084H303.218V158.856H324.66V108.764C324.66 97.0191 332.235 88.5568 342.321 88.5568C352.604 88.5568 358.548 95.9854 358.548 107.901V158.85H379.996V108.758C379.996 96.843 387.381 88.5511 398.013 88.5511C408.289 88.5511 414.234 95.9798 414.234 107.889V158.845H435.866V104.959C435.866 82.2641 423.135 70.0762 404.319 70.0762V70.0705Z" fill="black"/>
<path d="M442.159 53.4261C439.981 53.4261 438.111 52.9479 436.548 51.9915C434.995 51.035 433.797 49.714 432.955 48.0284C432.121 46.3333 431.705 44.3826 431.705 42.1761C431.705 39.9602 432.131 38.0047 432.983 36.3097C433.835 34.6051 435.038 33.2794 436.591 32.3324C438.153 31.3759 440 30.8977 442.131 30.8977C443.902 30.8977 445.469 31.2244 446.832 31.8778C448.205 32.5218 449.299 33.4356 450.114 34.6193C450.928 35.7936 451.392 37.1667 451.506 38.7386H446.591C446.392 37.6875 445.919 36.8116 445.17 36.1108C444.432 35.4006 443.442 35.0455 442.202 35.0455C441.151 35.0455 440.227 35.3295 439.432 35.8977C438.636 36.4564 438.016 37.2614 437.571 38.3125C437.135 39.3636 436.918 40.6231 436.918 42.0909C436.918 43.5777 437.135 44.8561 437.571 45.9261C438.007 46.9867 438.617 47.8059 439.403 48.3835C440.199 48.9517 441.132 49.2358 442.202 49.2358C442.959 49.2358 443.636 49.0937 444.233 48.8097C444.839 48.5161 445.346 48.0947 445.753 47.5455C446.16 46.9962 446.439 46.3286 446.591 45.5426H451.506C451.383 47.0862 450.928 48.4545 450.142 49.6477C449.356 50.8314 448.286 51.7595 446.932 52.4318C445.578 53.0947 443.987 53.4261 442.159 53.4261ZM460.87 23.9091V53H455.728V23.9091H460.87ZM475.675 53.4261C473.544 53.4261 471.697 52.9574 470.135 52.0199C468.572 51.0824 467.36 49.7708 466.499 48.0852C465.646 46.3996 465.22 44.4299 465.22 42.1761C465.22 39.9223 465.646 37.9479 466.499 36.2528C467.36 34.5578 468.572 33.2415 470.135 32.304C471.697 31.3665 473.544 30.8977 475.675 30.8977C477.805 30.8977 479.652 31.3665 481.214 32.304C482.777 33.2415 483.984 34.5578 484.837 36.2528C485.698 37.9479 486.129 39.9223 486.129 42.1761C486.129 44.4299 485.698 46.3996 484.837 48.0852C483.984 49.7708 482.777 51.0824 481.214 52.0199C479.652 52.9574 477.805 53.4261 475.675 53.4261ZM475.703 49.3068C476.858 49.3068 477.824 48.9896 478.601 48.3551C479.377 47.7112 479.955 46.8494 480.334 45.7699C480.722 44.6903 480.916 43.4877 480.916 42.1619C480.916 40.8267 480.722 39.6193 480.334 38.5398C479.955 37.4508 479.377 36.5843 478.601 35.9403C477.824 35.2964 476.858 34.9744 475.703 34.9744C474.519 34.9744 473.535 35.2964 472.749 35.9403C471.972 36.5843 471.39 37.4508 471.001 38.5398C470.623 39.6193 470.433 40.8267 470.433 42.1619C470.433 43.4877 470.623 44.6903 471.001 45.7699C471.39 46.8494 471.972 47.7112 472.749 48.3551C473.535 48.9896 474.519 49.3068 475.703 49.3068ZM495.636 40.2159V53H490.494V31.1818H495.408V34.8892H495.664C496.166 33.6676 496.966 32.697 498.065 31.9773C499.173 31.2576 500.541 30.8977 502.17 30.8977C503.675 30.8977 504.987 31.2197 506.104 31.8636C507.231 32.5076 508.103 33.4403 508.718 34.6619C509.343 35.8835 509.651 37.3655 509.641 39.108V53H504.499V39.9034C504.499 38.4451 504.121 37.304 503.363 36.4801C502.615 35.6562 501.578 35.2443 500.252 35.2443C499.353 35.2443 498.552 35.4432 497.852 35.8409C497.16 36.2292 496.616 36.7926 496.218 37.5312C495.83 38.2699 495.636 39.1648 495.636 40.2159ZM524.528 53.4261C522.34 53.4261 520.451 52.9716 518.86 52.0625C517.279 51.1439 516.062 49.8466 515.21 48.1705C514.357 46.4848 513.931 44.5009 513.931 42.2188C513.931 39.9744 514.357 38.0047 515.21 36.3097C516.071 34.6051 517.274 33.2794 518.817 32.3324C520.361 31.3759 522.174 30.8977 524.258 30.8977C525.603 30.8977 526.871 31.1155 528.065 31.5511C529.267 31.9773 530.328 32.6402 531.246 33.5398C532.174 34.4394 532.904 35.5852 533.434 36.9773C533.964 38.3598 534.229 40.0076 534.229 41.9205V43.4972H516.346V40.0312H529.3C529.291 39.0464 529.078 38.1705 528.661 37.4034C528.245 36.6269 527.662 36.0161 526.914 35.571C526.175 35.1259 525.314 34.9034 524.329 34.9034C523.278 34.9034 522.354 35.1591 521.559 35.6705C520.763 36.1723 520.143 36.8352 519.698 37.6591C519.263 38.4735 519.04 39.3684 519.031 40.3438V43.3693C519.031 44.6383 519.263 45.7273 519.727 46.6364C520.191 47.536 520.839 48.2273 521.673 48.7102C522.506 49.1837 523.481 49.4205 524.599 49.4205C525.347 49.4205 526.024 49.3163 526.63 49.108C527.236 48.8902 527.762 48.5729 528.207 48.1562C528.652 47.7396 528.988 47.2235 529.215 46.608L534.016 47.1477C533.713 48.4167 533.136 49.5246 532.283 50.4716C531.441 51.4091 530.361 52.1383 529.045 52.6591C527.728 53.1705 526.223 53.4261 524.528 53.4261Z" fill="black"/>
</svg>
