<svg width="536" height="256" viewBox="0 0 536 256" fill="none" xmlns="http://www.w3.org/2000/svg">
<path d="M82.756 61.0786L41.3721 30.5393L0 61.0786V30.5393L41.378 0L82.7619 30.5393L82.756 61.0786Z" fill="#A435F0"/>
<path d="M0 80.2622H21.8096V137.028C21.8096 151.695 32.0328 158.844 41.6338 158.844C51.3177 158.844 61.4639 151.504 61.4639 136.832V80.2622H83.2735V138.381C83.2735 151.891 79.3086 162.316 71.379 169.465C63.4433 176.608 53.5342 180.087 41.45 180.087C29.3777 180.087 19.4627 176.614 11.7167 169.465C3.96484 162.323 0 152.285 0 138.959V80.2622ZM271.826 150.812C265.223 157.11 257.703 160.196 249.127 160.196C233.481 160.196 222.991 150.647 221.806 135.86H292.272C292.272 135.86 292.746 131.086 292.746 126.603C292.746 112.699 288.598 101.112 280.123 91.6523C271.837 82.1923 261.027 77.5575 247.865 77.5575C233.991 77.5575 222.63 82.1923 213.615 91.6523C204.785 101.112 200.281 113.467 200.281 128.921V129.683C200.281 144.939 204.785 157.104 213.615 166.183C222.446 175.256 234.163 179.89 248.404 179.89C264.963 179.89 278.137 172.894 288.023 160.831L271.826 150.812ZM230.376 103.43C235.235 99.3726 241.191 97.2521 247.859 97.2521C254.165 97.2521 259.392 99.3726 263.902 103.626C268.204 107.499 270.528 112.255 270.729 117.721H222.363C223.062 112.071 225.729 107.309 230.381 103.436L230.376 103.43ZM491.367 193.007C482.519 215.388 473.262 223 459.068 223H449.23V202.29H457.183C462.067 202.29 466.606 200.321 470.933 189.63L475.259 178.925L437.946 80.2622H460.117L486.614 151.32L513.835 80.2622H536L491.367 193.007ZM168.177 43V89.0746C161.029 82.2177 149.911 78.1353 139.161 78.1353C126.359 78.1353 115.549 82.9605 106.719 92.8014C98.0661 102.458 93.7397 114.426 93.7397 128.908C93.7397 143.396 98.0661 155.364 106.719 165.212C115.549 174.868 126.365 179.7 139.161 179.7C153.918 179.7 163.246 173.484 168.177 168.615V177.573H189.809V43.0063L168.177 43ZM161.687 150.158C156.46 155.758 149.793 158.659 142.041 158.659C134.289 158.659 127.983 155.758 122.756 150.158C117.718 144.558 115.188 137.416 115.188 128.921C115.188 120.419 117.712 113.277 122.756 107.677C127.983 102.077 134.289 99.1821 142.041 99.1821C149.793 99.1821 156.46 102.077 161.687 107.677C167.092 113.277 169.807 120.419 169.807 128.921C169.807 137.416 167.092 144.558 161.687 150.158ZM404.319 78.3321C387.89 78.3321 379.35 85.6334 373.501 92.6681C371.16 87.8873 364.57 78.3321 349.173 78.3321C336.158 78.3321 328.489 85.3795 324.66 90.3952V80.2749H303.218V177.586H324.66V121.588C324.66 108.458 332.235 98.998 342.321 98.998C352.604 98.998 358.548 107.302 358.548 120.623V177.579H379.996V121.581C379.996 108.261 387.381 98.9917 398.013 98.9917C408.289 98.9917 414.234 107.296 414.234 120.61V177.573H435.866V117.334C435.866 91.9634 423.135 78.3384 404.319 78.3384V78.3321Z" fill="black"/>
<path d="M442.159 62.4261C439.981 62.4261 438.111 61.9479 436.548 60.9915C434.995 60.035 433.797 58.714 432.955 57.0284C432.121 55.3333 431.705 53.3826 431.705 51.1761C431.705 48.9602 432.131 47.0047 432.983 45.3097C433.835 43.6051 435.038 42.2794 436.591 41.3324C438.153 40.3759 440 39.8977 442.131 39.8977C443.902 39.8977 445.469 40.2244 446.832 40.8778C448.205 41.5218 449.299 42.4356 450.114 43.6193C450.928 44.7936 451.392 46.1667 451.506 47.7386H446.591C446.392 46.6875 445.919 45.8116 445.17 45.1108C444.432 44.4006 443.442 44.0455 442.202 44.0455C441.151 44.0455 440.227 44.3295 439.432 44.8977C438.636 45.4564 438.016 46.2614 437.571 47.3125C437.135 48.3636 436.918 49.6231 436.918 51.0909C436.918 52.5777 437.135 53.8561 437.571 54.9261C438.007 55.9867 438.617 56.8059 439.403 57.3835C440.199 57.9517 441.132 58.2358 442.202 58.2358C442.959 58.2358 443.636 58.0937 444.233 57.8097C444.839 57.5161 445.346 57.0947 445.753 56.5455C446.16 55.9962 446.439 55.3286 446.591 54.5426H451.506C451.383 56.0862 450.928 57.4545 450.142 58.6477C449.356 59.8314 448.286 60.7595 446.932 61.4318C445.578 62.0947 443.987 62.4261 442.159 62.4261ZM460.87 32.9091V62H455.728V32.9091H460.87ZM475.675 62.4261C473.544 62.4261 471.697 61.9574 470.135 61.0199C468.572 60.0824 467.36 58.7708 466.499 57.0852C465.646 55.3996 465.22 53.4299 465.22 51.1761C465.22 48.9223 465.646 46.9479 466.499 45.2528C467.36 43.5578 468.572 42.2415 470.135 41.304C471.697 40.3665 473.544 39.8977 475.675 39.8977C477.805 39.8977 479.652 40.3665 481.214 41.304C482.777 42.2415 483.984 43.5578 484.837 45.2528C485.698 46.9479 486.129 48.9223 486.129 51.1761C486.129 53.4299 485.698 55.3996 484.837 57.0852C483.984 58.7708 482.777 60.0824 481.214 61.0199C479.652 61.9574 477.805 62.4261 475.675 62.4261ZM475.703 58.3068C476.858 58.3068 477.824 57.9896 478.601 57.3551C479.377 56.7112 479.955 55.8494 480.334 54.7699C480.722 53.6903 480.916 52.4877 480.916 51.1619C480.916 49.8267 480.722 48.6193 480.334 47.5398C479.955 46.4508 479.377 45.5843 478.601 44.9403C477.824 44.2964 476.858 43.9744 475.703 43.9744C474.519 43.9744 473.535 44.2964 472.749 44.9403C471.972 45.5843 471.39 46.4508 471.001 47.5398C470.623 48.6193 470.433 49.8267 470.433 51.1619C470.433 52.4877 470.623 53.6903 471.001 54.7699C471.39 55.8494 471.972 56.7112 472.749 57.3551C473.535 57.9896 474.519 58.3068 475.703 58.3068ZM495.636 49.2159V62H490.494V40.1818H495.408V43.8892H495.664C496.166 42.6676 496.966 41.697 498.065 40.9773C499.173 40.2576 500.541 39.8977 502.17 39.8977C503.675 39.8977 504.987 40.2197 506.104 40.8636C507.231 41.5076 508.103 42.4403 508.718 43.6619C509.343 44.8835 509.651 46.3655 509.641 48.108V62H504.499V48.9034C504.499 47.4451 504.121 46.304 503.363 45.4801C502.615 44.6562 501.578 44.2443 500.252 44.2443C499.353 44.2443 498.552 44.4432 497.852 44.8409C497.16 45.2292 496.616 45.7926 496.218 46.5312C495.83 47.2699 495.636 48.1648 495.636 49.2159ZM524.528 62.4261C522.34 62.4261 520.451 61.9716 518.86 61.0625C517.279 60.1439 516.062 58.8466 515.21 57.1705C514.357 55.4848 513.931 53.5009 513.931 51.2188C513.931 48.9744 514.357 47.0047 515.21 45.3097C516.071 43.6051 517.274 42.2794 518.817 41.3324C520.361 40.3759 522.174 39.8977 524.258 39.8977C525.603 39.8977 526.871 40.1155 528.065 40.5511C529.267 40.9773 530.328 41.6402 531.246 42.5398C532.174 43.4394 532.904 44.5852 533.434 45.9773C533.964 47.3598 534.229 49.0076 534.229 50.9205V52.4972H516.346V49.0312H529.3C529.291 48.0464 529.078 47.1705 528.661 46.4034C528.245 45.6269 527.662 45.0161 526.914 44.571C526.175 44.1259 525.314 43.9034 524.329 43.9034C523.278 43.9034 522.354 44.1591 521.559 44.6705C520.763 45.1723 520.143 45.8352 519.698 46.6591C519.263 47.4735 519.04 48.3684 519.031 49.3438V52.3693C519.031 53.6383 519.263 54.7273 519.727 55.6364C520.191 56.536 520.839 57.2273 521.673 57.7102C522.506 58.1837 523.481 58.4205 524.599 58.4205C525.347 58.4205 526.024 58.3163 526.63 58.108C527.236 57.8902 527.762 57.5729 528.207 57.1562C528.652 56.7396 528.988 56.2235 529.215 55.608L534.016 56.1477C533.713 57.4167 533.136 58.5246 532.283 59.4716C531.441 60.4091 530.361 61.1383 529.045 61.6591C527.728 62.1705 526.223 62.4261 524.528 62.4261Z" fill="black"/>
</svg>
