<svg width="158" height="107" viewBox="0 0 158 107" fill="none" xmlns="http://www.w3.org/2000/svg">
<g clip-path="url(#clip0_929_684)">
<rect x="41" y="10" width="112" height="16" rx="4" fill="black"/>
<rect x="41" y="82" width="112" height="16" rx="4" fill="black"/>
<rect x="41" y="46" width="112" height="16" rx="4" fill="black"/>
<path d="M20.329 12.642C20.109 16.954 19.999 20.386 19.999 22.938C19.999 24.258 20.032 25.512 20.098 26.7C20.274 26.832 20.615 26.898 21.121 26.898L21.88 26.865C22.188 26.821 22.474 26.799 22.738 26.799C23.31 26.799 23.75 26.898 24.058 27.096C24.388 27.294 24.553 27.679 24.553 28.251C24.553 28.801 24.388 29.23 24.058 29.538C23.75 29.846 23.101 30 22.111 30C21.275 30 20.263 29.934 19.075 29.802C18.789 29.78 18.514 29.758 18.25 29.736C17.986 29.714 17.744 29.703 17.524 29.703C16.314 29.725 15.412 29.769 14.818 29.835C14.224 29.901 13.553 29.934 12.805 29.934C12.123 29.934 11.782 29.417 11.782 28.383C11.782 27.393 12.42 26.898 13.696 26.898C13.894 26.898 14.213 26.92 14.653 26.964C15.027 27.03 15.423 27.063 15.841 27.063C16.083 27.063 16.281 27.052 16.435 27.03C16.457 25.556 16.534 23.411 16.666 20.595C16.798 17.295 16.864 14.853 16.864 13.269C16.754 13.291 16.369 13.445 15.709 13.731C14.697 14.237 13.949 14.49 13.465 14.49C13.201 14.49 12.959 14.358 12.739 14.094C12.519 13.808 12.409 13.478 12.409 13.104C12.409 12.73 12.64 12.367 13.102 12.015C13.564 11.663 14.312 11.201 15.346 10.629C15.918 10.343 16.468 10.024 16.996 9.672C17.128 9.584 17.315 9.496 17.557 9.408C17.821 9.32 18.019 9.276 18.151 9.276C18.723 9.276 19.24 9.397 19.702 9.639C20.186 9.859 20.428 10.156 20.428 10.53L20.329 12.642Z" fill="black"/>
<path d="M16.303 62.568C17.051 62.612 17.546 62.634 17.788 62.634C18.536 62.634 19.196 62.623 19.768 62.601C20.362 62.579 20.868 62.557 21.286 62.535C22.364 62.469 23.332 62.436 24.19 62.436C25.026 62.436 25.642 62.656 26.038 63.096C26.434 63.536 26.632 64.119 26.632 64.845C26.632 65.197 26.401 65.483 25.939 65.703C25.477 65.901 25.004 66 24.52 66C24.102 66 23.233 65.956 21.913 65.868C20.329 65.736 19.086 65.67 18.184 65.67C17.7 65.67 17.128 65.703 16.468 65.769C16.204 65.791 15.885 65.813 15.511 65.835C15.137 65.857 14.719 65.868 14.257 65.868C13.377 65.868 12.706 65.747 12.244 65.505C11.782 65.263 11.551 64.823 11.551 64.185C11.551 63.635 11.771 63.074 12.211 62.502C12.651 61.93 13.267 61.248 14.059 60.456L14.851 59.664C15.203 59.29 15.852 58.652 16.798 57.75C18.36 56.342 19.57 55.099 20.428 54.021C21.308 52.943 21.748 51.876 21.748 50.82C21.748 50.138 21.418 49.588 20.758 49.17C20.12 48.73 19.383 48.51 18.547 48.51C17.271 48.51 16.347 48.796 15.775 49.368C15.225 49.918 14.95 50.721 14.95 51.777C14.95 52.041 14.796 52.283 14.488 52.503C14.202 52.701 13.839 52.8 13.399 52.8C12.783 52.8 12.354 52.58 12.112 52.14C11.87 51.7 11.749 51.161 11.749 50.523C11.749 49.511 12.057 48.62 12.673 47.85C13.289 47.058 14.125 46.442 15.181 46.002C16.259 45.562 17.447 45.342 18.745 45.342C19.669 45.342 20.626 45.573 21.616 46.035C22.628 46.475 23.464 47.08 24.124 47.85C24.806 48.598 25.147 49.423 25.147 50.325C25.147 51.689 24.806 52.987 24.124 54.219C23.442 55.451 22.639 56.551 21.715 57.519C20.813 58.465 19.636 59.587 18.184 60.885C17.48 61.479 16.853 62.04 16.303 62.568Z" fill="black"/>
<path d="M20.395 88.8C22.199 89.196 23.695 89.977 24.883 91.143C26.071 92.309 26.665 93.662 26.665 95.202C26.665 96.126 26.445 97.028 26.005 97.908C25.301 99.316 24.245 100.372 22.837 101.076C21.451 101.78 19.845 102.132 18.019 102.132C16.875 102.132 15.852 101.923 14.95 101.505C14.048 101.065 13.157 100.482 12.277 99.756C11.947 99.448 11.65 99.008 11.386 98.436C11.144 97.864 11.023 97.391 11.023 97.017C11.023 96.533 11.155 96.148 11.419 95.862C11.705 95.554 12.079 95.4 12.541 95.4C13.003 95.4 13.366 95.51 13.63 95.73C13.894 95.95 14.213 96.302 14.587 96.786C14.939 97.248 15.258 97.622 15.544 97.908C15.83 98.172 16.215 98.403 16.699 98.601C17.183 98.799 17.788 98.898 18.514 98.898C19.988 98.898 21.143 98.535 21.979 97.809C22.815 97.083 23.233 96.06 23.233 94.74C23.233 94.234 22.958 93.728 22.408 93.222C21.858 92.694 21.341 92.32 20.857 92.1C20.571 91.946 20.043 91.792 19.273 91.638C18.239 91.374 17.458 91.121 16.93 90.879C16.424 90.615 16.171 90.208 16.171 89.658C16.171 89.284 16.336 88.921 16.666 88.569C16.996 88.195 17.491 87.733 18.151 87.183C18.811 86.633 19.306 86.182 19.636 85.83C19.966 85.456 20.131 85.082 20.131 84.708C19.713 84.598 19.086 84.543 18.25 84.543C17.876 84.543 17.315 84.565 16.567 84.609C15.907 84.653 15.401 84.675 15.049 84.675C14.257 84.675 13.575 84.543 13.003 84.279C12.453 84.015 12.178 83.674 12.178 83.256C12.178 82.794 12.222 82.431 12.31 82.167C12.398 81.881 12.563 81.705 12.805 81.639C12.959 81.573 13.234 81.54 13.63 81.54C14.708 81.54 15.643 81.573 16.435 81.639C17.315 81.683 17.986 81.705 18.448 81.705L21.187 81.672C23.431 81.672 24.553 82.211 24.553 83.289C24.553 84.103 24.135 85.027 23.299 86.061C22.485 87.073 21.517 87.986 20.395 88.8Z" fill="black"/>
</g>
<defs>
<clipPath id="clip0_929_684">
<rect width="158" height="107" fill="white"/>
</clipPath>
</defs>
</svg>
