<!DOCTYPE svg PUBLIC "-//W3C//DTD SVG 1.1//EN" "http://www.w3.org/Graphics/SVG/1.1/DTD/svg11.dtd">
<!-- Uploaded to: SVG Repo, www.svgrepo.com, Transformed by: SVG Repo Mixer Tools -->
<svg width="122px" height="122px" viewBox="-19.2 -19.2 230.40 230.40" xmlns="http://www.w3.org/2000/svg" fill="none">
<g id="SVGRepo_bgCarrier" stroke-width="0" transform="translate(0,0), scale(1)">
<rect x="-19.2" y="-19.2" width="230.40" height="230.40" rx="115.2" fill="#c061ff" strokewidth="0"/>
</g>
<g id="SVGRepo_tracerCarrier" stroke-linecap="round" stroke-linejoin="round" stroke="#CCCCCC" stroke-width="21.504">
<path d="M33.83 46v62.997c.16 3.087 1.453 21.753 17.223 34.618A47.477 47.695 0 0 0 80 154a47.477 47.695 0 0 0 28.947-10.384c15.792-12.865 17.063-31.531 17.223-34.618V46" class="cls-2" style="fill:none;stroke:#ffffff;stroke-width:12px;stroke-linecap:round;stroke-miterlimit:10" transform="translate(16 16)"/>
<path d="M34 25 80 6l45 19" style="fill:none;stroke:#ffffff;stroke-width:12;stroke-linecap:round;stroke-linejoin:round;stroke-miterlimit:1;paint-order:stroke fill markers" transform="translate(16 16)"/>
</g>
<g id="SVGRepo_iconCarrier">
<path d="M33.83 46v62.997c.16 3.087 1.453 21.753 17.223 34.618A47.477 47.695 0 0 0 80 154a47.477 47.695 0 0 0 28.947-10.384c15.792-12.865 17.063-31.531 17.223-34.618V46" class="cls-2" style="fill:none;stroke:#ffffff;stroke-width:12.48;stroke-linecap:round;stroke-miterlimit:10" transform="translate(16 16)"/>
<path d="M34 25 80 6l45 19" style="fill:none;stroke:#ffffff;stroke-width:12.48;stroke-linecap:round;stroke-linejoin:round;stroke-miterlimit:1;paint-order:stroke fill markers" transform="translate(16 16)"/>
</g>
</svg>